Verenigde Staten / Duitsland
Drama / Misdaad
116 minuten

geregisseerd door Clint Eastwood
met Clint Eastwood, Bee Vang en Ahney Her

Walt Kowalski (Clint Eastwood), is een knorrige oorlogsveteraan en oud fabriekswerker die net zijn vrouw heeft verloren en geen goed contact heeft met zijn zoons. Ook zijn buren ziet hij amper. Ooit was het nog een goede buurt, maar nu wonen er voornamelijk Aziatische Hmong-immigranten om hem heen. En daar moet Walt helemaal niks van hebben. Door zijn ervaringen in de oorlog in Korea heeft hij een hekel aan Aziaten, maar eigenlijk aan zo'n beetje alle culturen. Hij wil het liefst met rust gelaten worden, door iedereen. Totdat op een nacht zijn prachtige auto, een Gran Torino, bijna wordt gestolen. De dader is zijn buurjongetje die dit deed onder druk van een lokale bende. Dit zet een serie gebeurtenissen in gang die het leven van Walt én zijn buren voorgoed zal veranderen...



Nl subs





Screnshots:
 
http://postimage.org/image/wu3244qff/ 
http://postimage.org/image/hnx0d70ej/ 
http://postimage.org/image/nq4n3oouj/ 
http://postimage.org/image/h12p1eswb/




INFO;

Format                                   : Matroska
Format version                           : Version 2
File size                                : 2.45 GiB
Duration                                 : 1h 56mn
Overall bit rate mode                    : Variable
Overall bit rate                         : 3 009 Kbps
Encoded date                             : UTC 2012-01-09 17:22:32
Writing application                      : mkvmerge v5.2.1 ('A Far Off Place') built on Jan  2 2012 23:21:10
Writing library                          : libebml v1.2.3 + libmatroska v1.3.0

Video
ID                                       : 1
Format                                   : AVC
Format/Info                              : Advanced Video Codec
Format profile                           : High@L4.0
Format settings, CABAC                   : Yes
Format settings, ReFrames                : 3 frames
Muxing mode                              : Header stripping
Codec ID                                 : V_MPEG4/ISO/AVC
Duration                                 : 1h 56mn
Bit rate mode                            : Variable
Bit rate                                 : 2 560 Kbps
Maximum bit rate                         : 25.0 Mbps
Width                                    : 1 280 pixels
Height                                   : 534 pixels
Display aspect ratio                     : 2.40:1
Frame rate                               : 23.976 fps
Color space                              : YUV
Chroma subsampling                       : 4:2:0
Bit depth                                : 8 bits
Scan type                                : Progressive
Bits/(Pixel*Frame)                       : 0.156
Stream size                              : 2.04 GiB (83%)
Writing library                          : x264 core 105 r1732 2b04482
Language                                 : English
Default                                  : Yes
Forced                                   : No

Audio
ID                                       : 2
Format                                   : AC-3
Format/Info                              : Audio Coding 3
Mode extension                           : CM (complete main)
Muxing mode                              : Header stripping
Codec ID                                 : A_AC3
Duration                                 : 1h 56mn
Bit rate mode                            : Constant
Bit rate                                 : 448 Kbps
Channel(s)                               : 6 channels
Channel positions                        : Front: L C R, Side: L R, LFE
Sampling rate                            : 48.0 KHz
Bit depth                                : 16 bits
Compression mode                         : Lossy
Stream size                              : 374 MiB (15%)
Language                                 : English
Default                                  : Yes
Forced                                   : No

Text #1
ID                                       : 3
Format                                   : UTF-8
Codec ID                                 : S_TEXT/UTF8
Codec ID/Info                            : UTF-8 Plain Text
Language                                 : Dutch
Default                                  : No
Forced                                   : No

Text #2
ID                                       : 4
Format                                   : UTF-8
Codec ID                                 : S_TEXT/UTF8
Codec ID/Info                            : UTF-8 Plain Text
Default                                  : Yes
Forced                                   : No



 
http://www.imdb.com/title/tt1205489/ 
http://www.moviemeter.nl/film/53238




Deze film wordt u aangeboden door het DutchReleaseTeam.
Voor de reviews van de nieuwste films, muziek, series, games etc
ga dan eens naar http://www.hetmultimediacafe.be/